<?xml version="1.0" encoding="iso-8859-1"?>
<!-- Generator: Adobe Illustrator 19.0.0, SVG Export Plug-In . SVG Version: 6.00 Build 0)  -->
<svg version="1.1" id="Capa_1" xmlns="http://www.w3.org/2000/svg" xmlns:xlink="http://www.w3.org/1999/xlink" x="0px" y="0px"
	 viewBox="0 0 512 512" style="enable-background:new 0 0 512 512;" xml:space="preserve">
<linearGradient id="SVGID_1_" gradientUnits="userSpaceOnUse" x1="0" y1="258" x2="512" y2="258" gradientTransform="matrix(1 0 0 -1 0 514)">
	<stop  offset="0" style="stop-color:#80D8FF"/>
	<stop  offset="1" style="stop-color:#EA80FC"/>
</linearGradient>
<path style="fill:url(#SVGID_1_);" d="M256,0C114.516,0,0,114.497,0,256c0,141.484,114.497,256,256,256
	c141.484,0,256-114.497,256-256C512,114.516,397.503,0,256,0z M256,472c-119.377,0-216-96.607-216-216c0-119.377,96.607-216,216-216
	c119.377,0,216,96.607,216,216C472,375.377,375.393,472,256,472z M336,208.5c0,37.209-25.534,68.566-60,77.469V318.5
	c0,11.046-8.954,20-20,20s-20-8.954-20-20v-50c0-11.046,8.954-20,20-20c22.056,0,40-17.944,40-40s-17.944-40-40-40s-40,17.944-40,40
	c0,11.046-8.954,20-20,20s-20-8.954-20-20c0-44.112,35.888-80,80-80S336,164.388,336,208.5z M281,378.5c0,13.807-11.193,25-25,25
	s-25-11.193-25-25s11.193-25,25-25S281,364.693,281,378.5z"/>
<g>
</g>
<g>
</g>
<g>
</g>
<g>
</g>
<g>
</g>
<g>
</g>
<g>
</g>
<g>
</g>
<g>
</g>
<g>
</g>
<g>
</g>
<g>
</g>
<g>
</g>
<g>
</g>
<g>
</g>
</svg>
