<svg viewBox="0 0 512 512" xmlns="http://www.w3.org/2000/svg" xmlns:xlink="http://www.w3.org/1999/xlink"><linearGradient id="a" gradientTransform="matrix(1 0 0 -1 0 -15338)" gradientUnits="userSpaceOnUse" x1="0" x2="512" y1="-15594" y2="-15594"><stop offset="0" stop-color="#31d8ff"/><stop offset="1" stop-color="#ff80ff"/></linearGradient><path d="m512 256c0 141.386719-114.613281 256-256 256s-256-114.613281-256-256 114.613281-256 256-256 256 114.613281 256 256zm0 0" fill="url(#a)"/><g fill="#fff"><path d="m256 456c-110.28125 0-200-89.71875-200-200s89.71875-200 200-200 200 89.71875 200 200-89.71875 200-200 200zm0-370c-93.738281 0-170 76.261719-170 170s76.261719 170 170 170 170-76.261719 170-170-76.261719-170-170-170zm0 0"/><path d="m256 319.992188c-8.285156 0-15-6.714844-15-15v-39.191407c0-8.285156 6.714844-15 15-15 17.664062 0 32.035156-14.371093 32.035156-32.035156s-14.371094-32.035156-32.035156-32.035156-32.035156 14.371093-32.035156 32.035156c0 8.285156-6.714844 15-15 15-8.28125 0-15-6.714844-15-15 0-34.207031 27.828125-62.035156 62.035156-62.035156s62.035156 27.828125 62.035156 62.035156c0 29.035156-20.054687 53.472656-47.035156 60.199219v26.027344c0 8.285156-6.714844 15-15 15zm0 0"/><path d="m275.597656 352.027344c0 10.824218-8.773437 19.597656-19.597656 19.597656s-19.597656-8.773438-19.597656-19.597656c0-10.824219 8.773437-19.597656 19.597656-19.597656s19.597656 8.773437 19.597656 19.597656zm0 0"/></g></svg>